<mxfile host="app.diagrams.net" agent="Mozilla/5.0 (Windows NT 10.0; Win64; x64) AppleWebKit/537.36 (KHTML, like Gecko) Chrome/128.0.0.0 Safari/537.36" version="24.7.16">
  <diagram name="Page-1" id="4jZNLcrMccTGJ4CJMG3j">
    <mxGraphModel dx="933" dy="446" grid="1" gridSize="10" guides="1" tooltips="1" connect="1" arrows="1" fold="1" page="1" pageScale="1" pageWidth="827" pageHeight="1169" math="0" shadow="0">
      <root>
        <mxCell id="0" />
        <mxCell id="1" parent="0" />
        <mxCell id="xrwXwiO2S9cRtXvmpimH-1" value="" style="rounded=1;whiteSpace=wrap;html=1;" vertex="1" parent="1">
          <mxGeometry x="222" y="165" width="548" height="60" as="geometry" />
        </mxCell>
        <mxCell id="xrwXwiO2S9cRtXvmpimH-2" value="" style="rounded=1;whiteSpace=wrap;html=1;" vertex="1" parent="1">
          <mxGeometry x="421" y="175" width="160" height="40" as="geometry" />
        </mxCell>
        <mxCell id="xrwXwiO2S9cRtXvmpimH-3" value="&lt;font style=&quot;font-size: 18px;&quot;&gt;Librarian&lt;/font&gt;" style="text;html=1;align=center;verticalAlign=middle;whiteSpace=wrap;rounded=0;" vertex="1" parent="1">
          <mxGeometry x="467" y="180" width="60" height="30" as="geometry" />
        </mxCell>
        <mxCell id="xrwXwiO2S9cRtXvmpimH-4" value="" style="rounded=1;whiteSpace=wrap;html=1;" vertex="1" parent="1">
          <mxGeometry x="218" y="297" width="552" height="60" as="geometry" />
        </mxCell>
        <mxCell id="xrwXwiO2S9cRtXvmpimH-5" value="" style="rounded=1;whiteSpace=wrap;html=1;" vertex="1" parent="1">
          <mxGeometry x="377" y="302.5" width="240" height="49" as="geometry" />
        </mxCell>
        <mxCell id="xrwXwiO2S9cRtXvmpimH-6" value="&lt;font style=&quot;font-size: 15px;&quot;&gt;&lt;font style=&quot;font-size: 15px;&quot;&gt;Web Browser (Chrome,&amp;nbsp;&lt;span style=&quot;color: rgb(0, 29, 53); font-family: &amp;quot;Google Sans&amp;quot;, Arial, sans-serif; text-align: left; background-color: rgb(255, 255, 255);&quot;&gt;Microsoft Edge,&amp;nbsp;&lt;/span&gt;&lt;/font&gt;&lt;span style=&quot;color: rgb(0, 29, 53); font-family: &amp;quot;Google Sans&amp;quot;, Arial, sans-serif; text-align: left; background-color: rgb(255, 255, 255);&quot;&gt;Mozilla Firefox)&lt;/span&gt;&lt;/font&gt;" style="text;html=1;align=center;verticalAlign=middle;whiteSpace=wrap;rounded=0;" vertex="1" parent="1">
          <mxGeometry x="378" y="313" width="241" height="30" as="geometry" />
        </mxCell>
        <mxCell id="xrwXwiO2S9cRtXvmpimH-7" value="" style="rounded=1;whiteSpace=wrap;html=1;" vertex="1" parent="1">
          <mxGeometry x="218" y="438" width="552" height="140" as="geometry" />
        </mxCell>
        <mxCell id="xrwXwiO2S9cRtXvmpimH-8" value="" style="rounded=1;whiteSpace=wrap;html=1;" vertex="1" parent="1">
          <mxGeometry x="277" y="458" width="190" height="40" as="geometry" />
        </mxCell>
        <mxCell id="xrwXwiO2S9cRtXvmpimH-9" value="" style="rounded=1;whiteSpace=wrap;html=1;" vertex="1" parent="1">
          <mxGeometry x="498" y="458" width="190" height="40" as="geometry" />
        </mxCell>
        <mxCell id="xrwXwiO2S9cRtXvmpimH-10" value="" style="rounded=1;whiteSpace=wrap;html=1;" vertex="1" parent="1">
          <mxGeometry x="498" y="518" width="190" height="40" as="geometry" />
        </mxCell>
        <mxCell id="xrwXwiO2S9cRtXvmpimH-11" value="" style="rounded=1;whiteSpace=wrap;html=1;" vertex="1" parent="1">
          <mxGeometry x="278" y="518" width="189" height="40" as="geometry" />
        </mxCell>
        <mxCell id="xrwXwiO2S9cRtXvmpimH-12" value="&lt;font style=&quot;font-size: 16px;&quot;&gt;Issue a Book&lt;/font&gt;" style="text;html=1;align=center;verticalAlign=middle;whiteSpace=wrap;rounded=0;" vertex="1" parent="1">
          <mxGeometry x="318" y="463" width="110" height="30" as="geometry" />
        </mxCell>
        <mxCell id="xrwXwiO2S9cRtXvmpimH-13" value="&lt;font style=&quot;font-size: 16px;&quot;&gt;Return a Book&lt;/font&gt;" style="text;html=1;align=center;verticalAlign=middle;whiteSpace=wrap;rounded=0;" vertex="1" parent="1">
          <mxGeometry x="535" y="463" width="109" height="30" as="geometry" />
        </mxCell>
        <mxCell id="xrwXwiO2S9cRtXvmpimH-14" value="&lt;font style=&quot;font-size: 16px;&quot;&gt;List of Books&lt;/font&gt;" style="text;html=1;align=center;verticalAlign=middle;whiteSpace=wrap;rounded=0;" vertex="1" parent="1">
          <mxGeometry x="320" y="523" width="101" height="30" as="geometry" />
        </mxCell>
        <mxCell id="xrwXwiO2S9cRtXvmpimH-15" value="&lt;font style=&quot;font-size: 16px;&quot;&gt;Search Book&lt;/font&gt;" style="text;html=1;align=center;verticalAlign=middle;whiteSpace=wrap;rounded=0;" vertex="1" parent="1">
          <mxGeometry x="535" y="524" width="113" height="30" as="geometry" />
        </mxCell>
        <mxCell id="xrwXwiO2S9cRtXvmpimH-16" value="" style="rounded=1;whiteSpace=wrap;html=1;" vertex="1" parent="1">
          <mxGeometry x="222" y="812" width="548" height="60" as="geometry" />
        </mxCell>
        <mxCell id="xrwXwiO2S9cRtXvmpimH-17" value="&lt;font style=&quot;font-size: 16px;&quot;&gt;Postgresql DataBase&lt;/font&gt;" style="rounded=1;whiteSpace=wrap;html=1;" vertex="1" parent="1">
          <mxGeometry x="378" y="820" width="211" height="40" as="geometry" />
        </mxCell>
        <mxCell id="xrwXwiO2S9cRtXvmpimH-18" value="" style="rounded=1;whiteSpace=wrap;html=1;" vertex="1" parent="1">
          <mxGeometry x="222" y="664" width="546" height="54" as="geometry" />
        </mxCell>
        <mxCell id="xrwXwiO2S9cRtXvmpimH-19" value="" style="rounded=1;whiteSpace=wrap;html=1;" vertex="1" parent="1">
          <mxGeometry x="328" y="676" width="130" height="34" as="geometry" />
        </mxCell>
        <mxCell id="xrwXwiO2S9cRtXvmpimH-21" value="" style="rounded=1;whiteSpace=wrap;html=1;" vertex="1" parent="1">
          <mxGeometry x="528" y="672" width="130" height="40" as="geometry" />
        </mxCell>
        <mxCell id="xrwXwiO2S9cRtXvmpimH-22" value="&lt;font style=&quot;font-size: 16px;&quot;&gt;Book Id&lt;/font&gt;" style="text;html=1;align=center;verticalAlign=middle;whiteSpace=wrap;rounded=0;" vertex="1" parent="1">
          <mxGeometry x="361" y="678" width="60" height="30" as="geometry" />
        </mxCell>
        <mxCell id="xrwXwiO2S9cRtXvmpimH-23" value="&lt;font style=&quot;font-size: 16px;&quot;&gt;Book Title&lt;/font&gt;" style="text;html=1;align=center;verticalAlign=middle;whiteSpace=wrap;rounded=0;" vertex="1" parent="1">
          <mxGeometry x="555" y="681" width="76" height="24" as="geometry" />
        </mxCell>
        <mxCell id="xrwXwiO2S9cRtXvmpimH-24" value="" style="endArrow=none;dashed=1;html=1;rounded=0;" edge="1" parent="1">
          <mxGeometry width="50" height="50" relative="1" as="geometry">
            <mxPoint x="43" y="255" as="sourcePoint" />
            <mxPoint x="773" y="255" as="targetPoint" />
          </mxGeometry>
        </mxCell>
        <mxCell id="xrwXwiO2S9cRtXvmpimH-26" value="" style="endArrow=none;dashed=1;html=1;rounded=0;" edge="1" parent="1">
          <mxGeometry width="50" height="50" relative="1" as="geometry">
            <mxPoint x="43" y="909" as="sourcePoint" />
            <mxPoint x="773" y="909" as="targetPoint" />
          </mxGeometry>
        </mxCell>
        <mxCell id="xrwXwiO2S9cRtXvmpimH-27" value="" style="endArrow=none;dashed=1;html=1;rounded=0;" edge="1" parent="1">
          <mxGeometry width="50" height="50" relative="1" as="geometry">
            <mxPoint x="43" y="755" as="sourcePoint" />
            <mxPoint x="773" y="755" as="targetPoint" />
          </mxGeometry>
        </mxCell>
        <mxCell id="xrwXwiO2S9cRtXvmpimH-28" value="" style="endArrow=none;dashed=1;html=1;rounded=0;" edge="1" parent="1">
          <mxGeometry width="50" height="50" relative="1" as="geometry">
            <mxPoint x="46" y="611" as="sourcePoint" />
            <mxPoint x="776" y="611" as="targetPoint" />
          </mxGeometry>
        </mxCell>
        <mxCell id="xrwXwiO2S9cRtXvmpimH-29" value="" style="endArrow=none;dashed=1;html=1;rounded=0;" edge="1" parent="1">
          <mxGeometry width="50" height="50" relative="1" as="geometry">
            <mxPoint x="45" y="390" as="sourcePoint" />
            <mxPoint x="775" y="390" as="targetPoint" />
          </mxGeometry>
        </mxCell>
        <mxCell id="xrwXwiO2S9cRtXvmpimH-31" value="&lt;font style=&quot;font-size: 16px;&quot;&gt;Client Layer&lt;/font&gt;" style="text;strokeColor=none;fillColor=none;align=left;verticalAlign=middle;spacingLeft=4;spacingRight=4;overflow=hidden;points=[[0,0.5],[1,0.5]];portConstraint=eastwest;rotatable=0;whiteSpace=wrap;html=1;" vertex="1" parent="1">
          <mxGeometry x="96" y="185" width="120" height="30" as="geometry" />
        </mxCell>
        <mxCell id="xrwXwiO2S9cRtXvmpimH-32" value="&lt;font style=&quot;font-size: 16px;&quot;&gt;Access Layer&lt;/font&gt;" style="text;strokeColor=none;fillColor=none;align=left;verticalAlign=middle;spacingLeft=4;spacingRight=4;overflow=hidden;points=[[0,0.5],[1,0.5]];portConstraint=eastwest;rotatable=0;whiteSpace=wrap;html=1;" vertex="1" parent="1">
          <mxGeometry x="90" y="313" width="113" height="30" as="geometry" />
        </mxCell>
        <mxCell id="xrwXwiO2S9cRtXvmpimH-33" value="&lt;font style=&quot;font-size: 16px;&quot;&gt;Service Layer&lt;/font&gt;" style="text;html=1;align=center;verticalAlign=middle;whiteSpace=wrap;rounded=0;" vertex="1" parent="1">
          <mxGeometry x="99" y="497" width="90" height="30" as="geometry" />
        </mxCell>
        <mxCell id="xrwXwiO2S9cRtXvmpimH-34" value="&lt;font style=&quot;font-size: 16px;&quot;&gt;Input Layer&lt;/font&gt;" style="text;html=1;align=center;verticalAlign=middle;whiteSpace=wrap;rounded=0;" vertex="1" parent="1">
          <mxGeometry x="93" y="677" width="100" height="30" as="geometry" />
        </mxCell>
        <mxCell id="xrwXwiO2S9cRtXvmpimH-35" value="&lt;font style=&quot;font-size: 16px;&quot;&gt;Database Layer&lt;/font&gt;" style="text;html=1;align=center;verticalAlign=middle;whiteSpace=wrap;rounded=0;" vertex="1" parent="1">
          <mxGeometry x="99" y="825" width="91" height="30" as="geometry" />
        </mxCell>
        <mxCell id="xrwXwiO2S9cRtXvmpimH-36" value="" style="endArrow=classic;html=1;rounded=0;" edge="1" parent="1">
          <mxGeometry width="50" height="50" relative="1" as="geometry">
            <mxPoint x="495" y="360" as="sourcePoint" />
            <mxPoint x="495" y="435" as="targetPoint" />
          </mxGeometry>
        </mxCell>
        <mxCell id="xrwXwiO2S9cRtXvmpimH-37" value="" style="endArrow=classic;html=1;rounded=0;" edge="1" parent="1">
          <mxGeometry width="50" height="50" relative="1" as="geometry">
            <mxPoint x="495" y="230" as="sourcePoint" />
            <mxPoint x="495" y="290" as="targetPoint" />
            <Array as="points">
              <mxPoint x="495" y="290" />
            </Array>
          </mxGeometry>
        </mxCell>
        <mxCell id="xrwXwiO2S9cRtXvmpimH-38" value="" style="endArrow=classic;html=1;rounded=0;" edge="1" parent="1">
          <mxGeometry width="50" height="50" relative="1" as="geometry">
            <mxPoint x="492" y="583" as="sourcePoint" />
            <mxPoint x="492" y="658" as="targetPoint" />
          </mxGeometry>
        </mxCell>
        <mxCell id="xrwXwiO2S9cRtXvmpimH-39" value="" style="endArrow=classic;html=1;rounded=0;" edge="1" parent="1">
          <mxGeometry width="50" height="50" relative="1" as="geometry">
            <mxPoint x="492" y="732" as="sourcePoint" />
            <mxPoint x="492" y="807" as="targetPoint" />
          </mxGeometry>
        </mxCell>
      </root>
    </mxGraphModel>
  </diagram>
</mxfile>
